<svg width="63" height="63" viewBox="0 0 63 63" fill="none" xmlns="http://www.w3.org/2000/svg">
<circle cx="31.5" cy="31.5" r="31" stroke="url(#paint0_linear)"/>
<path fill-rule="evenodd" clip-rule="evenodd" d="M30.8696 35.5561C30.8696 34.8519 31.4342 34.281 32.1308 34.281H40.959C41.6556 34.281 42.2202 34.8519 42.2202 35.5561V40.6565C42.2202 41.3607 41.6556 41.9315 40.959 41.9315H32.1308C31.4342 41.9315 30.8696 41.3607 30.8696 40.6565V35.5561ZM32.1308 35.5561H40.959V40.6565H32.1308V35.5561Z" fill="url(#paint1_linear)"/>
<path d="M30.239 43.2066C29.8907 43.2066 29.6084 43.4921 29.6084 43.8442C29.6084 44.1963 29.8907 44.4817 30.239 44.4817H42.8508C43.1991 44.4817 43.4814 44.1963 43.4814 43.8442C43.4814 43.4921 43.1991 43.2066 42.8508 43.2066H30.239Z" fill="url(#paint2_linear)"/>
<path fill-rule="evenodd" clip-rule="evenodd" d="M23 21H39.4817C41.1386 21 42.4817 22.3431 42.4817 24V31H43.4817V24C43.4817 21.7909 41.6909 20 39.4817 20H23C20.7909 20 19 21.7909 19 24V40.4817C19 42.6909 20.7909 44.4817 23 44.4817H26V43.4817H23C21.3431 43.4817 20 42.1386 20 40.4817V24C20 22.3431 21.3431 21 23 21Z" fill="white" fill-opacity="0.2"/>
<defs>
<linearGradient id="paint0_linear" x1="0" y1="0" x2="63" y2="83.5" gradientUnits="userSpaceOnUse">
<stop stop-color="#0460D9"/>
<stop offset="1" stop-color="#012340"/>
</linearGradient>
<linearGradient id="paint1_linear" x1="31.2405" y1="34.281" x2="42.6653" y2="48.97" gradientUnits="userSpaceOnUse">
<stop stop-color="white"/>
<stop offset="1" stop-color="white" stop-opacity="0"/>
</linearGradient>
<linearGradient id="paint2_linear" x1="31.2405" y1="34.281" x2="42.6653" y2="48.97" gradientUnits="userSpaceOnUse">
<stop stop-color="white"/>
<stop offset="1" stop-color="white" stop-opacity="0"/>
</linearGradient>
</defs>
</svg>
