<svg width="63" height="63" viewBox="0 0 63 63" fill="none" xmlns="http://www.w3.org/2000/svg">
<circle cx="31.5" cy="31.5" r="31" stroke="url(#paint0_linear)"/>
<path fill-rule="evenodd" clip-rule="evenodd" d="M24 21H40C41.6569 21 43 22.3431 43 24V31H44V24C44 21.7909 42.2091 20 40 20H24C21.7909 20 20 21.7909 20 24V40C20 42.2091 21.7909 44 24 44H31V43H24C22.3431 43 21 41.6569 21 40V24C21 22.3431 22.3431 21 24 21Z" fill="white" fill-opacity="0.2"/>
<path fill-rule="evenodd" clip-rule="evenodd" d="M37.5854 43.5417C37.5854 43.7948 37.3802 43.9999 37.1272 43.9999C36.8741 43.9999 36.669 43.7948 36.669 43.5417C36.669 43.2887 36.8741 43.0836 37.1272 43.0836C37.3802 43.0836 37.5854 43.2887 37.5854 43.5417ZM39.4181 43.5417C39.4181 43.7948 39.213 43.9999 38.9599 43.9999C38.7069 43.9999 38.5017 43.7948 38.5017 43.5417C38.5017 43.2887 38.7069 43.0836 38.9599 43.0836C39.213 43.0836 39.4181 43.2887 39.4181 43.5417ZM40.7926 43.9999C41.0457 43.9999 41.2508 43.7948 41.2508 43.5417C41.2508 43.2887 41.0457 43.0836 40.7926 43.0836C40.5396 43.0836 40.3345 43.2887 40.3345 43.5417C40.3345 43.7948 40.5396 43.9999 40.7926 43.9999Z" fill="url(#paint1_linear)"/>
<path fill-rule="evenodd" clip-rule="evenodd" d="M37.5854 34.3781C37.5854 34.6312 37.3802 34.8363 37.1272 34.8363C36.8741 34.8363 36.669 34.6312 36.669 34.3781C36.669 34.1251 36.8741 33.9199 37.1272 33.9199C37.3802 33.9199 37.5854 34.1251 37.5854 34.3781ZM39.4181 34.3781C39.4181 34.6312 39.213 34.8363 38.9599 34.8363C38.7069 34.8363 38.5017 34.6312 38.5017 34.3781C38.5017 34.1251 38.7069 33.9199 38.9599 33.9199C39.213 33.9199 39.4181 34.1251 39.4181 34.3781ZM40.7926 34.8363C41.0457 34.8363 41.2508 34.6312 41.2508 34.3781C41.2508 34.1251 41.0457 33.9199 40.7926 33.9199C40.5396 33.9199 40.3345 34.1251 40.3345 34.3781C40.3345 34.6312 40.5396 34.8363 40.7926 34.8363ZM37.5854 43.5417C37.5854 43.7948 37.3802 43.9999 37.1272 43.9999C36.8741 43.9999 36.669 43.7948 36.669 43.5417C36.669 43.2887 36.8741 43.0836 37.1272 43.0836C37.3802 43.0836 37.5854 43.2887 37.5854 43.5417ZM39.4181 43.5417C39.4181 43.7948 39.213 43.9999 38.9599 43.9999C38.7069 43.9999 38.5017 43.7948 38.5017 43.5417C38.5017 43.2887 38.7069 43.0836 38.9599 43.0836C39.213 43.0836 39.4181 43.2887 39.4181 43.5417ZM40.7926 43.9999C41.0457 43.9999 41.2508 43.7948 41.2508 43.5417C41.2508 43.2887 41.0457 43.0836 40.7926 43.0836C40.5396 43.0836 40.3345 43.2887 40.3345 43.5417C40.3345 43.7948 40.5396 43.9999 40.7926 43.9999ZM43.9999 40.7926C43.9999 40.5396 43.7948 40.3345 43.5417 40.3345C43.2887 40.3345 43.0836 40.5396 43.0836 40.7926C43.0836 41.0457 43.2887 41.2508 43.5417 41.2508C43.7948 41.2508 43.9999 41.0457 43.9999 40.7926ZM43.9999 38.9599C43.9999 38.7069 43.7948 38.5017 43.5417 38.5017C43.2887 38.5017 43.0836 38.7069 43.0836 38.9599C43.0836 39.213 43.2887 39.4181 43.5417 39.4181C43.7948 39.4181 43.9999 39.213 43.9999 38.9599ZM43.5417 36.669C43.7948 36.669 43.9999 36.8741 43.9999 37.1272C43.9999 37.3802 43.7948 37.5854 43.5417 37.5854C43.2887 37.5854 43.0836 37.3802 43.0836 37.1272C43.0836 36.8741 43.2887 36.669 43.5417 36.669ZM34.3781 40.3345C34.6312 40.3345 34.8363 40.5396 34.8363 40.7926C34.8363 41.0457 34.6312 41.2508 34.3781 41.2508C34.1251 41.2508 33.9199 41.0457 33.9199 40.7926C33.9199 40.5396 34.1251 40.3345 34.3781 40.3345ZM34.3781 38.5017C34.6312 38.5017 34.8363 38.7069 34.8363 38.9599C34.8363 39.213 34.6312 39.4181 34.3781 39.4181C34.1251 39.4181 33.9199 39.213 33.9199 38.9599C33.9199 38.7069 34.1251 38.5017 34.3781 38.5017ZM34.8363 37.1272C34.8363 36.8741 34.6312 36.669 34.3781 36.669C34.1251 36.669 33.9199 36.8741 33.9199 37.1272C33.9199 37.3802 34.1251 37.5854 34.3781 37.5854C34.6312 37.5854 34.8363 37.3802 34.8363 37.1272ZM41.2508 36.2108H36.669C36.416 36.2108 36.2108 36.416 36.2108 36.669V41.2508C36.2108 41.5039 36.416 41.709 36.669 41.709H41.2508C41.5039 41.709 41.709 41.5039 41.709 41.2508V36.669C41.709 36.416 41.5039 36.2108 41.2508 36.2108ZM36.669 35.2945C35.9099 35.2945 35.2945 35.9099 35.2945 36.669V41.2508C35.2945 42.01 35.9099 42.6254 36.669 42.6254H41.2508C42.01 42.6254 42.6254 42.01 42.6254 41.2508V36.669C42.6254 35.9099 42.01 35.2945 41.2508 35.2945H36.669ZM39.8763 38.0436H38.0436V39.8763H39.8763V38.0436ZM37.1272 37.1272V40.7926H40.7926V37.1272H37.1272Z" fill="url(#paint2_linear)"/>
<defs>
<linearGradient id="paint0_linear" x1="0" y1="0" x2="63" y2="83.5" gradientUnits="userSpaceOnUse">
<stop stop-color="#0460D9"/>
<stop offset="1" stop-color="#012340"/>
</linearGradient>
<linearGradient id="paint1_linear" x1="33.9199" y1="33.9199" x2="43.9999" y2="43.9999" gradientUnits="userSpaceOnUse">
<stop stop-color="white"/>
<stop offset="1" stop-color="#032859"/>
</linearGradient>
<linearGradient id="paint2_linear" x1="33.9199" y1="33.9199" x2="43.9999" y2="43.9999" gradientUnits="userSpaceOnUse">
<stop stop-color="white"/>
<stop offset="1" stop-color="#032859"/>
</linearGradient>
</defs>
</svg>
