<svg width="165" height="29" viewBox="0 0 165 29" fill="none" xmlns="http://www.w3.org/2000/svg">
<path d="M1.78434 17.3029C1.49206 17.3078 1.20525 17.387 0.948337 17.5338C0.691424 17.6805 0.472028 17.8904 0.308845 18.1456C0.145663 18.4008 0.0435326 18.6938 0.0111567 18.9995C-0.0212192 19.3052 0.0171196 19.6147 0.122906 19.9014C1.06509 22.3706 2.6346 24.5194 4.65964 26.1126C6.68467 27.7058 9.08718 28.6821 11.6042 28.9345C14.1212 29.1869 16.6557 28.7058 18.9302 27.5438C21.2048 26.3817 23.1317 24.5836 24.5001 22.3462C24.1564 22.3703 23.8098 22.3763 23.4603 22.3763C19.8968 22.3763 15.8693 21.4388 11.4121 19.5638C7.23269 17.8124 4.09316 17.2698 1.78434 17.3029Z" fill="url(#paint0_linear)"/>
<path d="M24.0563 17.3029C24.3473 17.3102 24.6324 17.3911 24.8875 17.5389C25.1425 17.6866 25.36 17.8968 25.5216 18.1517C25.6832 18.4066 25.784 18.6986 25.8157 19.0032C25.8473 19.3077 25.8088 19.6158 25.7034 19.9014C24.7612 22.3706 23.1917 24.5194 21.1667 26.1126C19.1416 27.7058 16.7391 28.6821 14.2221 28.9345C11.7051 29.1869 9.17061 28.7058 6.89606 27.5438C4.62151 26.3817 2.69458 24.5836 1.32617 22.3462C1.66992 22.3703 2.01653 22.3763 2.36886 22.3763C5.92948 22.3763 9.95989 21.4388 14.4142 19.5638C18.5965 17.8124 21.736 17.2698 24.0563 17.3029Z" fill="url(#paint1_linear)"/>
<path d="M24.122 11.6779C24.4072 11.6545 24.6832 11.5606 24.9275 11.4039C25.1718 11.2472 25.3775 11.032 25.5279 10.7759C25.6783 10.5198 25.7692 10.23 25.7932 9.92997C25.8172 9.62995 25.7736 9.32821 25.666 9.04925C24.7166 6.59022 23.1443 4.45243 21.1203 2.86869C19.0963 1.28495 16.6982 0.315959 14.1871 0.0672478C11.676 -0.181463 9.14824 0.299637 6.879 1.45816C4.60975 2.61668 2.68605 4.40821 1.31738 6.63765C5.47096 6.5231 10.1001 7.542 15.1531 9.65215C19.2351 11.3614 22.1397 11.8196 24.122 11.6779Z" fill="url(#paint2_linear)"/>
<path d="M1.69035 11.678C1.40511 11.6546 1.12913 11.5607 0.884847 11.404C0.64056 11.2473 0.434846 11.0321 0.284418 10.776C0.13399 10.5199 0.0430893 10.2301 0.0191008 9.93005C-0.00488779 9.63003 0.0387122 9.32828 0.146359 9.04932C1.09493 6.58949 2.66687 4.45083 4.6909 2.86641C6.71492 1.28198 9.11336 0.312568 11.6249 0.0638166C14.1364 -0.184935 16.6646 0.296516 18.934 1.4557C21.2034 2.61489 23.1269 4.40734 24.4949 6.63772C20.3442 6.52317 15.7123 7.54207 10.6592 9.65222C6.58298 11.3614 3.66974 11.8197 1.69035 11.678Z" fill="url(#paint3_linear)"/>
<path d="M48.766 6.93921C53.1688 6.93921 56.0362 10.2793 56.0362 14.5026C56.0362 18.7259 53.1717 22.0931 48.766 22.0931C44.3604 22.0931 41.4414 18.753 41.4414 14.5026C41.4414 10.2521 44.3375 6.93921 48.766 6.93921ZM48.766 20.0402C52.0259 20.0402 53.7818 17.5503 53.7818 14.5026C53.7818 11.4549 52.0259 8.98907 48.766 8.98907C45.5062 8.98907 43.7244 11.4821 43.7244 14.5026C43.7244 17.5231 45.4804 20.0282 48.766 20.0282V20.0402Z" fill="#032859"/>
<path d="M71.2752 7.21941L66.7636 21.7885H62.1374L57.5713 7.21941H59.7999L64.1168 21.1072H64.7842L69.081 7.21338L71.2752 7.21941Z" fill="#032859"/>
<path d="M79.5226 6.93921C83.4212 6.93921 85.985 9.54675 85.985 14.0323V14.9578H75.0453C75.1857 17.713 76.4375 20.0824 79.8635 20.0824C82.1551 20.0824 83.215 18.9098 83.7191 16.6821H86.0107C85.4808 18.9399 84.2748 22.075 79.872 22.075C74.9135 22.075 72.8253 18.4998 72.8253 14.3066C72.8081 9.62211 75.5953 6.93921 79.5226 6.93921ZM83.7564 13.1521C83.7564 10.8068 82.2783 8.96194 79.5226 8.96194C76.7669 8.96194 75.0453 10.7948 75.0453 13.14L83.7564 13.1521Z" fill="#032859"/>
<path d="M158.52 6.93921C162.413 6.93921 164.991 9.53469 164.991 14.0203V14.9578H154.034C154.175 17.713 155.427 20.0824 158.853 20.0824C161.144 20.0824 162.207 18.9098 162.708 16.6821H165C164.47 18.9399 163.264 22.075 158.861 22.075C153.906 22.075 151.814 18.4998 151.814 14.3066C151.814 9.62211 154.593 6.93921 158.52 6.93921ZM162.754 13.1521C162.754 10.8068 161.276 8.96194 158.52 8.96194C155.765 8.96194 154.034 10.8068 154.034 13.1521H162.754Z" fill="#032859"/>
<path d="M89.6053 8.94989C89.6053 7.57226 90.2184 6.89701 91.5274 6.95429L99.2158 6.99046V9.04937L91.8912 9.01319V21.7947H89.5996L89.6053 8.94989Z" fill="#032859"/>
<path d="M107.434 6.93921C110.106 6.93921 113.532 8.52182 113.896 12.7421H111.585C111.195 9.95672 109.439 8.98907 107.434 8.98907C104.145 8.98907 102.641 11.5122 102.641 14.5026C102.641 17.493 104.145 20.0402 107.434 20.0402C109.439 20.0402 111.195 19.4856 111.585 16.7002H113.896C113.532 20.9205 110.106 22.0931 107.434 22.0931C102.948 22.0931 100.358 18.7229 100.358 14.5026C100.358 10.2823 102.948 6.93921 107.434 6.93921Z" fill="#032859"/>
<path d="M123.814 6.93921C128.217 6.93921 131.084 10.2793 131.084 14.5026C131.084 18.7259 128.22 22.0931 123.814 22.0931C119.408 22.0931 116.489 18.753 116.489 14.5026C116.489 10.2521 119.385 6.93921 123.814 6.93921ZM123.814 20.0402C127.074 20.0402 128.827 17.5503 128.827 14.5026C128.827 11.4549 127.074 8.98907 123.814 8.98907C120.554 8.98907 118.772 11.4821 118.772 14.5026C118.772 17.5231 120.528 20.0282 123.814 20.0282V20.0402Z" fill="#032859"/>
<path d="M146.183 21.7886V19.6483L146.573 18.0054H145.905C145.333 20.2633 143.453 22.081 140.305 22.081C136.295 22.081 133.717 18.8284 133.717 14.4905C133.717 10.1527 136.295 6.92715 140.305 6.92715C143.456 6.92715 145.321 8.73585 145.905 11.0299H146.573L146.183 9.35081V0.00585938H148.475V21.7886H146.183ZM140.976 8.97701C138.111 8.97701 135.988 10.6199 135.988 14.4905C135.988 18.3611 138.105 20.0282 140.976 20.0282C143.846 20.0282 146.183 18.3943 146.183 14.4905C146.183 10.5868 143.843 8.97701 140.976 8.97701Z" fill="#032859"/>
<defs>
<linearGradient id="paint0_linear" x1="-0.00599843" y1="23.1541" x2="24.5001" y2="23.1541" gradientUnits="userSpaceOnUse">
<stop stop-color="#0460D9"/>
<stop offset="1" stop-color="#032859"/>
</linearGradient>
<linearGradient id="paint1_linear" x1="1.32617" y1="23.1541" x2="25.8323" y2="23.1541" gradientUnits="userSpaceOnUse">
<stop stop-opacity="0.3"/>
<stop offset="1" stop-opacity="0.1"/>
</linearGradient>
<linearGradient id="paint2_linear" x1="1.32598" y1="5.85388" x2="25.8006" y2="5.85388" gradientUnits="userSpaceOnUse">
<stop stop-color="#032859"/>
<stop offset="1" stop-color="#0460D9"/>
</linearGradient>
<linearGradient id="paint3_linear" x1="0.0117255" y1="5.85395" x2="24.4835" y2="5.85395" gradientUnits="userSpaceOnUse">
<stop stop-opacity="0.1"/>
<stop offset="1" stop-opacity="0.3"/>
</linearGradient>
</defs>
</svg>
