<svg width="663" height="632" viewBox="0 0 663 632" fill="none" xmlns="http://www.w3.org/2000/svg">
<rect y="100.807" width="348" height="248.387" rx="20" fill="#0460D9"/>
<rect y="382.613" width="348" height="248.387" rx="20" fill="#0460D9"/>
<rect x="378" y="101" width="348" height="248.387" rx="20" fill="#0460D9"/>
<rect x="378" y="383" width="348" height="248.387" rx="20" fill="#0460D9"/>
<rect y="-181" width="348" height="248.387" rx="20" fill="#0460D9"/>
<rect x="378" y="-181" width="348" height="248.387" rx="20" fill="#0460D9"/>
<rect x="19" y="402" width="38.9515" height="38.9515" rx="13.2789" fill="#012340" fill-opacity="0.2"/>
<rect x="282.5" y="402.5" width="37.9515" height="37.9515" rx="12.7789" stroke="#012340" stroke-opacity="0.2"/>
<path fill-rule="evenodd" clip-rule="evenodd" d="M301.5 414C297.36 414 294 417.36 294 421.5C294 425.64 297.36 429 301.5 429C305.64 429 309 425.64 309 421.5C309 417.36 305.64 414 301.5 414ZM297.803 426.209C298.125 425.534 300.09 424.874 301.5 424.874C302.91 424.874 304.883 425.534 305.198 426.209C304.178 427.019 302.895 427.499 301.5 427.499C300.105 427.499 298.823 427.019 297.803 426.209ZM301.5 423.375C302.595 423.375 305.198 423.817 306.27 425.122C307.035 424.117 307.5 422.865 307.5 421.5C307.5 418.192 304.808 415.5 301.5 415.5C298.193 415.5 295.5 418.192 295.5 421.5C295.5 422.865 295.965 424.117 296.73 425.122C297.803 423.817 300.405 423.375 301.5 423.375ZM301.5 417C300.045 417 298.875 418.17 298.875 419.625C298.875 421.08 300.045 422.25 301.5 422.25C302.955 422.25 304.125 421.08 304.125 419.625C304.125 418.17 302.955 417 301.5 417ZM300.375 419.625C300.375 420.247 300.877 420.75 301.5 420.75C302.122 420.75 302.625 420.247 302.625 419.625C302.625 419.002 302.122 418.5 301.5 418.5C300.877 418.5 300.375 419.002 300.375 419.625Z" fill="#F2F2F2" fill-opacity="0.2"/>
<rect x="156" y="411" width="89" height="21" rx="5" fill="#012340" fill-opacity="0.2"/>
<rect x="274" y="596" width="46.619" height="11" rx="2.61905" fill="#012340" fill-opacity="0.2"/>
<rect x="102" y="460" width="48.884" height="48.884" rx="4.8884" fill="#012340" fill-opacity="0.2"/>
<rect x="102" y="516.705" width="48.884" height="48.884" rx="4.8884" fill="#012340" fill-opacity="0.2"/>
<rect x="158.705" y="460" width="48.884" height="48.884" rx="4.8884" fill="#012340" fill-opacity="0.2"/>
<rect x="158.705" y="516.705" width="48.884" height="48.884" rx="4.8884" fill="#012340" fill-opacity="0.2"/>
<rect x="215.411" y="460" width="48.884" height="48.884" rx="4.8884" fill="#012340" fill-opacity="0.2"/>
<rect x="215.411" y="516.705" width="48.884" height="48.884" rx="4.8884" fill="#012340" fill-opacity="0.2"/>
<rect x="272.116" y="460" width="48.884" height="48.884" rx="4.8884" fill="#012340" fill-opacity="0.2"/>
<rect x="272.116" y="516.705" width="48.884" height="48.884" rx="4.8884" fill="#012340" fill-opacity="0.2"/>
<path fill-rule="evenodd" clip-rule="evenodd" d="M39.2764 598.867L44.9215 604.512C45.1702 604.76 45.1702 605.152 44.9215 605.388L43.4916 606.818C43.2491 607.061 42.8575 607.061 42.615 606.818L36.9512 601.154C35.5089 601.695 33.824 601.391 32.6676 600.234C31.2377 598.811 31.1071 596.579 32.2635 594.999L34.6447 597.381L35.5275 596.504L33.1401 594.11C34.7255 592.954 36.9512 593.085 38.3812 594.515C39.5562 595.696 39.8546 597.412 39.2764 598.867ZM37.1748 599.625L43.0562 605.507L43.6033 604.953L37.7281 599.078C38.0141 598.711 38.2006 598.301 38.2752 597.86C38.4307 596.995 38.1758 596.069 37.5043 595.398C36.9137 594.813 36.1365 594.54 35.3656 594.583L37.2867 596.504L34.6507 599.14L32.7296 597.219C32.6861 597.99 32.9596 598.773 33.5502 599.358C34.1968 600.004 35.0859 600.259 35.9314 600.135C36.3728 600.073 36.7956 599.905 37.1748 599.625Z" fill="#F2F2F2" fill-opacity="0.2"/>
<path fill-rule="evenodd" clip-rule="evenodd" d="M30.5078 422.461L38.5477 415.225L46.5875 422.461H44.1756V428.893H39.3517V424.069H37.7437V428.893H32.9198V422.461H30.5078ZM42.5679 421.006L38.5479 417.388L34.528 421.006V427.285H36.136V422.461H40.9599V427.285H42.5679V421.006Z" fill="#F2F2F2" fill-opacity="0.2"/>
<path fill-rule="evenodd" clip-rule="evenodd" d="M31.4855 463.169L37.9777 459.752L44.4699 463.169V464.536H31.4855V463.169ZM37.9778 461.297L41.5382 463.169H34.4173L37.9778 461.297ZM33.1938 465.902H34.5606V470.686H33.1938V465.902ZM37.294 465.902H38.6608V470.686H37.294V465.902ZM44.4697 472.053H31.4854V473.42H44.4697V472.053ZM41.3945 465.902H42.7612V470.686H41.3945V465.902Z" fill="#F2F2F2" fill-opacity="0.2"/>
<path fill-rule="evenodd" clip-rule="evenodd" d="M42.2757 551.683H44.4338C45.2323 551.683 45.8725 552.323 45.8725 553.122V561.035C45.8725 561.833 45.2323 562.473 44.4338 562.473H32.9241C32.1256 562.473 31.4854 561.833 31.4854 561.035V553.122C31.4854 552.323 32.1256 551.683 32.9241 551.683H35.0821V550.244C35.0821 549.446 35.7224 548.806 36.5208 548.806H40.837C41.6355 548.806 42.2757 549.446 42.2757 550.244V551.683ZM40.8368 550.244H36.5206V551.683H40.8368V550.244ZM44.4337 561.035H32.924V559.596H44.4337V561.035ZM32.924 557.438H44.4337V553.122H42.2756V554.561H40.8369V553.122H36.5207V554.561H35.082V553.122H32.924V557.438Z" fill="#F2F2F2" fill-opacity="0.2"/>
<path fill-rule="evenodd" clip-rule="evenodd" d="M39.2954 509.485H37.9937V507.533H36.0411V506.231H37.9937V504.279H39.2954V506.231H41.2479V507.533H39.2954V509.485ZM34.0955 516.645C34.0955 515.929 34.6748 515.343 35.3907 515.343C36.1066 515.343 36.6924 515.929 36.6924 516.645C36.6924 517.361 36.1066 517.947 35.3907 517.947C34.6748 517.947 34.0955 517.361 34.0955 516.645ZM41.8992 515.343C41.1833 515.343 40.6041 515.929 40.6041 516.645C40.6041 517.361 41.1833 517.947 41.8992 517.947C42.6152 517.947 43.2009 517.361 43.2009 516.645C43.2009 515.929 42.6152 515.343 41.8992 515.343ZM40.9551 512.089H36.1063L35.3904 513.391H43.2005V514.692H35.3904C34.4011 514.692 33.7763 513.631 34.2514 512.759L35.1301 511.171L32.787 506.231H31.4854V504.93H33.6136L36.3862 510.787H40.9551L43.4739 506.231L44.6064 506.856L42.0941 511.418C41.8728 511.822 41.4433 512.089 40.9551 512.089Z" fill="#F2F2F2" fill-opacity="0.2"/>
<line x1="76.5" y1="383" x2="76.5" y2="631" stroke="#012340" stroke-opacity="0.5"/>
<circle cx="121.5" cy="421.5" r="19.5" fill="#012340" fill-opacity="0.2"/>
<rect x="178.5" y="257.5" width="58" height="20" rx="4.5" stroke="#012340" stroke-opacity="0.5"/>
<rect x="112" y="257" width="60" height="21" rx="5" fill="#012340" fill-opacity="0.2"/>
<rect x="84" y="202" width="180" height="43" rx="5" fill="#012340" fill-opacity="0.2"/>
<rect x="237" y="319" width="89" height="13" rx="3" fill="#012340" fill-opacity="0.2"/>
<rect x="237" y="131" width="89" height="20" rx="3" fill="#012340" fill-opacity="0.2"/>
<rect x="20" y="131" width="40" height="20" rx="3" fill="#012340" fill-opacity="0.2"/>
<rect x="152" y="181" width="45" height="9" rx="3" fill="#012340" fill-opacity="0.2"/>
<circle cx="26.5" cy="325.5" r="6.5" fill="#012340" fill-opacity="0.2"/>
<circle cx="50.5" cy="325.5" r="6.5" fill="#012340" fill-opacity="0.2"/>
<circle cx="74.5" cy="325.5" r="6.5" fill="#012340" fill-opacity="0.2"/>
<rect x="470.5" y="532.5" width="58" height="20" rx="4.5" stroke="#012340" stroke-opacity="0.5"/>
<rect x="404" y="532" width="60" height="21" rx="5" fill="#012340" fill-opacity="0.2"/>
<rect x="404" y="477" width="180" height="43" rx="5" fill="#012340" fill-opacity="0.2"/>
<rect x="610" y="594" width="89" height="13" rx="3" fill="#012340" fill-opacity="0.2"/>
<rect x="610" y="406" width="89" height="20" rx="3" fill="#012340" fill-opacity="0.2"/>
<rect x="404" y="406" width="40" height="20" rx="3" fill="#012340" fill-opacity="0.2"/>
<rect x="458" y="413" width="19" height="6" rx="1" fill="#012340" fill-opacity="0.2"/>
<rect x="482" y="413" width="19" height="6" rx="1" fill="#012340" fill-opacity="0.2"/>
<rect x="506" y="413" width="19" height="6" rx="1" fill="#012340" fill-opacity="0.2"/>
<rect x="530" y="413" width="19" height="6" rx="1" fill="#012340" fill-opacity="0.2"/>
<rect x="554" y="413" width="19" height="6" rx="1" fill="#012340" fill-opacity="0.2"/>
<rect x="404" y="456" width="45" height="9" rx="3" fill="#012340" fill-opacity="0.2"/>
<circle cx="410.5" cy="600.5" r="6.5" fill="#012340" fill-opacity="0.2"/>
<circle cx="434.5" cy="600.5" r="6.5" fill="#012340" fill-opacity="0.2"/>
<circle cx="458.5" cy="600.5" r="6.5" fill="#012340" fill-opacity="0.2"/>
<rect x="616" y="23" width="89" height="13" rx="3" fill="#012340" fill-opacity="0.2"/>
<circle cx="405.5" cy="29.5" r="6.5" fill="#012340" fill-opacity="0.2"/>
<circle cx="429.5" cy="29.5" r="6.5" fill="#012340" fill-opacity="0.2"/>
<circle cx="453.5" cy="29.5" r="6.5" fill="#012340" fill-opacity="0.2"/>
<rect x="494" y="129" width="115" height="47" rx="5" fill="#012340" fill-opacity="0.2"/>
<rect x="421" y="198" width="77" height="31" rx="5" fill="#012340" fill-opacity="0.2"/>
<rect x="513" y="198" width="77" height="31" rx="5" fill="#012340" fill-opacity="0.2"/>
<rect x="605" y="198" width="77" height="31" rx="5" fill="#012340" fill-opacity="0.2"/>
<rect x="421" y="241" width="77" height="31" rx="5" fill="#012340" fill-opacity="0.2"/>
<rect x="513" y="241" width="77" height="31" rx="5" fill="#012340" fill-opacity="0.2"/>
<rect x="605" y="241" width="77" height="31" rx="5" fill="#012340" fill-opacity="0.2"/>
<rect x="421" y="284" width="77" height="31" rx="5" fill="#012340" fill-opacity="0.2"/>
<rect x="513" y="284" width="77" height="31" rx="5" fill="#012340" fill-opacity="0.2"/>
<rect x="605" y="284" width="77" height="31" rx="5" fill="#012340" fill-opacity="0.2"/>
<line x1="552.25" y1="176" x2="552.25" y2="198" stroke="url(#paint0_linear)" stroke-width="0.5" stroke-dasharray="3 3"/>
<line x1="643" y1="187.25" x2="459" y2="187.25" stroke="url(#paint1_linear)" stroke-width="0.5" stroke-dasharray="3 3"/>
<line x1="459.25" y1="187" x2="459.25" y2="198" stroke="url(#paint2_linear)" stroke-width="0.5" stroke-dasharray="3 3"/>
<line x1="643.25" y1="187" x2="643.25" y2="198" stroke="url(#paint3_linear)" stroke-width="0.5" stroke-dasharray="3 3"/>
<line x1="552.25" y1="229" x2="552.25" y2="241" stroke="url(#paint4_linear)" stroke-width="0.5" stroke-dasharray="3 3"/>
<line x1="459.25" y1="229" x2="459.25" y2="241" stroke="url(#paint5_linear)" stroke-width="0.5" stroke-dasharray="3 3"/>
<line x1="643.25" y1="229" x2="643.25" y2="241" stroke="url(#paint6_linear)" stroke-width="0.5" stroke-dasharray="3 3"/>
<line x1="552.25" y1="272" x2="552.25" y2="284" stroke="url(#paint7_linear)" stroke-width="0.5" stroke-dasharray="3 3"/>
<line x1="459.25" y1="272" x2="459.25" y2="284" stroke="url(#paint8_linear)" stroke-width="0.5" stroke-dasharray="3 3"/>
<line x1="643.25" y1="272" x2="643.25" y2="284" stroke="url(#paint9_linear)" stroke-width="0.5" stroke-dasharray="3 3"/>
<circle cx="459.3" cy="198" r="1.69995" fill="#032859"/>
<circle cx="552.7" cy="198" r="1.69995" fill="#032859"/>
<circle cx="643.1" cy="198" r="1.69995" fill="#032859"/>
<circle cx="459.3" cy="240.7" r="1.69995" fill="#032859"/>
<circle cx="552.7" cy="240.7" r="1.69995" fill="#032859"/>
<circle cx="643.1" cy="240.7" r="1.69995" fill="#032859"/>
<circle cx="459.3" cy="283.4" r="1.69995" fill="#032859"/>
<circle cx="552.7" cy="283.4" r="1.69995" fill="#032859"/>
<circle cx="643.1" cy="283.4" r="1.69995" fill="#032859"/>
<rect x="43" y="5" width="77" height="31" rx="5" fill="#012340" fill-opacity="0.2"/>
<rect x="135" y="5" width="77" height="31" rx="5" fill="#012340" fill-opacity="0.2"/>
<rect x="227" y="5" width="77" height="31" rx="5" fill="#012340" fill-opacity="0.2"/>
<line x1="174.25" y1="-7" x2="174.25" y2="5" stroke="url(#paint10_linear)" stroke-width="0.5" stroke-dasharray="3 3"/>
<line x1="81.25" y1="-7" x2="81.25" y2="5" stroke="url(#paint11_linear)" stroke-width="0.5" stroke-dasharray="3 3"/>
<line x1="265.25" y1="-7" x2="265.25" y2="5" stroke="url(#paint12_linear)" stroke-width="0.5" stroke-dasharray="3 3"/>
<circle cx="81.2996" cy="4.3999" r="1.69995" fill="#032859"/>
<circle cx="174.7" cy="4.3999" r="1.69995" fill="#032859"/>
<circle cx="265.1" cy="4.3999" r="1.69995" fill="#032859"/>
<defs>
<linearGradient id="paint0_linear" x1="552" y1="176" x2="552" y2="198" gradientUnits="userSpaceOnUse">
<stop stop-color="#0460D9"/>
<stop offset="1" stop-color="#032859"/>
</linearGradient>
<linearGradient id="paint1_linear" x1="643" y1="187" x2="459" y2="187" gradientUnits="userSpaceOnUse">
<stop stop-color="#0460D9"/>
<stop offset="1" stop-color="#032859"/>
</linearGradient>
<linearGradient id="paint2_linear" x1="459" y1="187" x2="459" y2="198" gradientUnits="userSpaceOnUse">
<stop stop-color="#0460D9"/>
<stop offset="1" stop-color="#032859"/>
</linearGradient>
<linearGradient id="paint3_linear" x1="643" y1="187" x2="643" y2="198" gradientUnits="userSpaceOnUse">
<stop stop-color="#0460D9"/>
<stop offset="1" stop-color="#032859"/>
</linearGradient>
<linearGradient id="paint4_linear" x1="552" y1="229" x2="552" y2="241" gradientUnits="userSpaceOnUse">
<stop stop-color="#0460D9"/>
<stop offset="1" stop-color="#032859"/>
</linearGradient>
<linearGradient id="paint5_linear" x1="459" y1="229" x2="459" y2="241" gradientUnits="userSpaceOnUse">
<stop stop-color="#0460D9"/>
<stop offset="1" stop-color="#032859"/>
</linearGradient>
<linearGradient id="paint6_linear" x1="643" y1="229" x2="643" y2="241" gradientUnits="userSpaceOnUse">
<stop stop-color="#0460D9"/>
<stop offset="1" stop-color="#032859"/>
</linearGradient>
<linearGradient id="paint7_linear" x1="552" y1="272" x2="552" y2="284" gradientUnits="userSpaceOnUse">
<stop stop-color="#0460D9"/>
<stop offset="1" stop-color="#032859"/>
</linearGradient>
<linearGradient id="paint8_linear" x1="459" y1="272" x2="459" y2="284" gradientUnits="userSpaceOnUse">
<stop stop-color="#0460D9"/>
<stop offset="1" stop-color="#032859"/>
</linearGradient>
<linearGradient id="paint9_linear" x1="643" y1="272" x2="643" y2="284" gradientUnits="userSpaceOnUse">
<stop stop-color="#0460D9"/>
<stop offset="1" stop-color="#032859"/>
</linearGradient>
<linearGradient id="paint10_linear" x1="174" y1="-7" x2="174" y2="5" gradientUnits="userSpaceOnUse">
<stop stop-color="#0460D9"/>
<stop offset="1" stop-color="#032859"/>
</linearGradient>
<linearGradient id="paint11_linear" x1="81" y1="-7" x2="81" y2="5" gradientUnits="userSpaceOnUse">
<stop stop-color="#0460D9"/>
<stop offset="1" stop-color="#032859"/>
</linearGradient>
<linearGradient id="paint12_linear" x1="265" y1="-7" x2="265" y2="5" gradientUnits="userSpaceOnUse">
<stop stop-color="#0460D9"/>
<stop offset="1" stop-color="#032859"/>
</linearGradient>
</defs>
</svg>
